<svg xmlns="http://www.w3.org/2000/svg" viewBox="0 0 100 100" width="100" height="100">
  <defs>
    <linearGradient id="gypBg" x1="0%" y1="0%" x2="100%" y2="100%">
      <stop offset="0%" stop-color="#831843"/>
      <stop offset="50%" stop-color="#be185d"/>
      <stop offset="100%" stop-color="#ec4899"/>
    </linearGradient>
    <linearGradient id="gypGold" x1="0%" y1="0%" x2="100%" y2="100%">
      <stop offset="0%" stop-color="#fef08a"/>
      <stop offset="100%" stop-color="#fbbf24"/>
    </linearGradient>
  </defs>
  <circle cx="50" cy="50" r="46" fill="url(#gypBg)" stroke="url(#gypGold)" stroke-width="4"/>
  <!-- Dancing Ribbon / Whip Swirl -->
  <path d="M20,68 C25,30 45,20 65,30 C80,38 75,65 50,68 C35,70 30,55 45,45 C55,38 65,48 58,58" stroke="#f472b6" stroke-width="4" fill="none" stroke-linecap="round"/>
  <!-- Traditional Fan Open -->
  <path d="M50,72 L26,45 C32,32 68,32 74,45 Z" fill="#fce7f3" stroke="url(#gypGold)" stroke-width="2"/>
  <path d="M50,72 L36,38 M50,72 L50,34 M50,72 L64,38" stroke="#db2777" stroke-width="1.5"/>
  <circle cx="50" cy="72" r="3.5" fill="url(#gypGold)"/>
  <!-- Rose Blossom / Gem -->
  <circle cx="50" cy="42" r="5" fill="#e11d48"/>
  <!-- Sparkles -->
  <polygon points="25,25 27,29 31,31 27,33 25,37 23,33 19,31 23,29" fill="url(#gypGold)"/>
  <polygon points="75,65 77,69 81,71 77,73 75,77 73,73 69,71 73,69" fill="url(#gypGold)"/>
</svg>