<svg xmlns="http://www.w3.org/2000/svg" viewBox="0 0 100 100" width="100" height="100">
  <defs>
    <linearGradient id="doramBg" x1="0%" y1="0%" x2="100%" y2="100%">
      <stop offset="0%" stop-color="#831843"/>
      <stop offset="50%" stop-color="#db2777"/>
      <stop offset="100%" stop-color="#f472b6"/>
    </linearGradient>
    <linearGradient id="doramGold" x1="0%" y1="0%" x2="100%" y2="100%">
      <stop offset="0%" stop-color="#fef08a"/>
      <stop offset="100%" stop-color="#f59e0b"/>
    </linearGradient>
  </defs>
  <circle cx="50" cy="50" r="46" fill="url(#doramBg)" stroke="url(#doramGold)" stroke-width="4"/>
  <!-- Giant Cat Paw Pad -->
  <ellipse cx="50" cy="58" rx="18" ry="14" fill="#ffffff"/>
  <!-- Inner Pad Pink -->
  <ellipse cx="50" cy="58" rx="14" ry="10" fill="#f472b6"/>
  <!-- 4 Toe Beans -->
  <ellipse cx="30" cy="40" rx="7" ry="9" fill="#ffffff"/>
  <ellipse cx="30" cy="40" rx="5" ry="7" fill="#f472b6"/>
  <ellipse cx="44" cy="32" rx="7" ry="9" fill="#ffffff"/>
  <ellipse cx="44" cy="32" rx="5" ry="7" fill="#f472b6"/>
  <ellipse cx="56" cy="32" rx="7" ry="9" fill="#ffffff"/>
  <ellipse cx="56" cy="32" rx="5" ry="7" fill="#f472b6"/>
  <ellipse cx="70" cy="40" rx="7" ry="9" fill="#ffffff"/>
  <ellipse cx="70" cy="40" rx="5" ry="7" fill="#f472b6"/>
  <!-- Cat Ears on Top Border -->
  <polygon points="26,18 36,30 20,32" fill="url(#doramGold)" stroke="#78350f" stroke-width="1.5"/>
  <polygon points="74,18 64,30 80,32" fill="url(#doramGold)" stroke="#78350f" stroke-width="1.5"/>
</svg>